<?xml version="1.0" encoding="UTF-8"?>
<!DOCTYPE svg PUBLIC "-//W3C//DTD SVG 1.1//EN" "http://www.w3.org/Graphics/SVG/1.1/DTD/svg11.dtd">
<svg xmlns="http://www.w3.org/2000/svg" version="1.1" width="64px" height="64px" style="shape-rendering:geometricPrecision; text-rendering:geometricPrecision; image-rendering:optimizeQuality; fill-rule:evenodd; clip-rule:evenodd" xmlns:xlink="http://www.w3.org/1999/xlink">
<g><path style="opacity:0.746" fill="#000000" d="M 63.5,12.5 C 63.5,26.5 63.5,40.5 63.5,54.5C 56.9818,52.5528 50.3151,51.2194 43.5,50.5C 39.4822,51.0739 35.4822,51.7406 31.5,52.5C 27.3419,51.7927 23.1752,51.126 19,50.5C 12.3718,51.3234 5.87177,52.6567 -0.5,54.5C -0.5,40.5 -0.5,26.5 -0.5,12.5C 6.61618,8.64751 14.2829,7.48084 22.5,9C 25.7789,9.97279 28.7789,11.4728 31.5,13.5C 36.4919,9.61456 42.1585,7.94789 48.5,8.5C 51.1667,8.66667 53.8333,8.83333 56.5,9C 58.5865,10.7099 60.9198,11.8766 63.5,12.5 Z M 11.5,11.5 C 17.7879,11.1542 23.4545,12.8208 28.5,16.5C 29.8333,26.5 29.8333,36.5 28.5,46.5C 21.7454,43.9278 14.7454,42.9278 7.5,43.5C 7.5,33.1667 7.5,22.8333 7.5,12.5C 9.09903,12.7678 10.4324,12.4345 11.5,11.5 Z M 44.5,11.5 C 48.1981,11.5524 51.8648,11.8857 55.5,12.5C 55.5,22.8333 55.5,33.1667 55.5,43.5C 48.2546,42.9278 41.2546,43.9278 34.5,46.5C 33.1667,36.5 33.1667,26.5 34.5,16.5C 37.6572,14.2546 40.9906,12.5879 44.5,11.5 Z M 2.5,15.5 C 4.47615,25.7809 5.14282,36.4476 4.5,47.5C 6.85684,47.3367 9.19018,47.5034 11.5,48C 8.49371,48.3324 5.66038,49.1657 3,50.5C 2.50014,38.8381 2.33347,27.1714 2.5,15.5 Z M 58.5,15.5 C 59.8291,20.9597 60.4958,26.793 60.5,33C 60.3333,38.8333 60.1667,44.6667 60,50.5C 57.3396,49.1657 54.5063,48.3324 51.5,48C 53.8098,47.5034 56.1432,47.3367 58.5,47.5C 58.5,36.8333 58.5,26.1667 58.5,15.5 Z"/></g>
</svg>
