<?xml version="1.0" standalone="no"?>
<!DOCTYPE svg PUBLIC "-//W3C//DTD SVG 20010904//EN"
 "http://www.w3.org/TR/2001/REC-SVG-20010904/DTD/svg10.dtd">
<svg version="1.0" xmlns="http://www.w3.org/2000/svg"
 width="64.000000pt" height="64.000000pt" viewBox="0 0 64.000000 64.000000"
 preserveAspectRatio="xMidYMid meet">

<g transform="translate(0.000000,64.000000) scale(0.100000,-0.100000)"
fill="#000000" stroke="none">
<path d="M510 613 c-8 -2 -22 -7 -30 -9 -13 -5 -13 -6 0 -14 12 -8 3 -21 -45
-70 l-60 -60 -79 25 -78 25 -74 -56 c-78 -60 -103 -84 -87 -84 6 0 45 27 87
59 l77 59 75 -25 76 -25 68 67 c46 45 70 63 75 55 10 -16 25 6 25 38 0 22 -3
24 -30 15z"/>
<path d="M487 514 c-4 -4 -7 -53 -7 -110 0 -100 0 -102 -24 -106 -22 -5 -25
-1 -28 31 l-3 36 -50 0 -50 0 -3 -123 c-2 -87 1 -122 9 -122 6 0 30 -20 53
-44 52 -55 97 -66 160 -37 58 25 81 61 81 126 0 36 -6 59 -22 81 -20 27 -23
46 -25 150 l-3 119 -40 3 c-23 2 -44 0 -48 -4z m73 -120 c0 -93 -2 -105 -16
-100 -9 3 -22 6 -30 6 -11 0 -14 20 -14 100 l0 100 30 0 30 0 0 -106z m-150
-78 c0 -18 -7 -39 -16 -46 -22 -19 -37 -50 -45 -95 -4 -28 -7 -6 -8 68 l-1
107 35 0 c33 0 35 -2 35 -34z m146 -52 c79 -52 66 -173 -23 -211 -71 -29 -150
18 -160 94 -6 45 14 93 49 117 29 21 102 20 134 0z"/>
<path d="M414 236 c-72 -72 -21 -182 83 -179 55 2 98 49 98 109 0 39 -5 50
-33 75 -47 43 -102 41 -148 -5z m140 -17 c30 -35 32 -58 11 -98 -45 -88 -185
-33 -161 63 10 42 41 66 85 66 32 0 44 -6 65 -31z"/>
<path d="M468 218 c-26 -32 -22 -48 12 -59 17 -6 30 -15 30 -20 0 -13 -34 -11
-48 3 -9 9 -12 9 -12 -3 0 -8 9 -22 20 -32 19 -16 21 -16 40 0 29 25 25 52
-10 64 -40 15 -39 33 2 25 l32 -6 -24 25 c-13 14 -24 25 -24 25 -1 0 -9 -10
-18 -22z"/>
<path d="M170 260 l0 -140 50 0 50 0 0 140 0 140 -50 0 -50 0 0 -140z m80 0
l0 -120 -30 0 -30 0 0 120 0 120 30 0 30 0 0 -120z"/>
<path d="M10 210 l0 -90 50 0 50 0 0 90 0 90 -50 0 -50 0 0 -90z m80 0 l0 -70
-30 0 -30 0 0 70 0 70 30 0 30 0 0 -70z"/>
</g>
</svg>
