<?xml version="1.0" standalone="no"?>
<!DOCTYPE svg PUBLIC "-//W3C//DTD SVG 20010904//EN"
 "http://www.w3.org/TR/2001/REC-SVG-20010904/DTD/svg10.dtd">
<svg version="1.0" xmlns="http://www.w3.org/2000/svg"
 width="32.000000pt" height="32.000000pt" viewBox="0 0 32.000000 32.000000"
 preserveAspectRatio="xMidYMid meet">

<g transform="translate(0.000000,32.000000) scale(0.100000,-0.100000)"
fill="#000000" stroke="none">
<path d="M33 305 c-10 -10 -9 -16 3 -26 22 -18 44 5 24 25 -13 12 -17 12 -27
1z"/>
<path d="M177 313 c-4 -3 -7 -19 -7 -34 0 -19 -8 -34 -25 -45 -29 -19 -32 -34
-8 -34 11 0 -11 -28 -62 -80 l-79 -80 22 -22 22 -22 75 74 c62 61 77 72 86 60
8 -13 13 -11 30 12 14 19 30 28 48 28 39 0 44 10 20 36 -20 21 -20 26 -9 54
16 39 9 46 -30 30 -28 -11 -33 -11 -54 9 -12 12 -26 18 -29 14z m75 -52 c17 9
18 8 9 -9 -7 -14 -6 -25 5 -40 14 -20 14 -22 -2 -22 -10 0 -25 -7 -35 -16 -16
-14 -18 -14 -24 5 -3 11 -15 23 -26 26 -19 6 -19 8 -5 24 9 10 16 25 16 35 0
16 2 16 22 2 15 -11 26 -12 40 -5z m-93 -117 c-18 -18 -36 -31 -41 -27 -6 3 5
20 23 39 18 18 36 31 41 27 6 -3 -5 -20 -23 -39z m-68 -67 c-8 -8 -11 -7 -11
4 0 20 13 34 18 19 3 -7 -1 -17 -7 -23z m-21 -16 c0 -13 -29 -35 -37 -28 -7 8
15 37 28 37 5 0 9 -4 9 -9z"/>
<path d="M110 280 c0 -5 5 -10 10 -10 6 0 10 5 10 10 0 6 -4 10 -10 10 -5 0
-10 -4 -10 -10z"/>
<path d="M270 45 c-11 -13 -11 -18 2 -31 20 -20 50 -7 46 20 -4 26 -30 32 -48
11z m30 -15 c0 -5 -4 -10 -10 -10 -5 0 -10 5 -10 10 0 6 5 10 10 10 6 0 10 -4
10 -10z"/>
</g>
</svg>
