<?xml version="1.0" standalone="no"?>
<!DOCTYPE svg PUBLIC "-//W3C//DTD SVG 20010904//EN"
 "http://www.w3.org/TR/2001/REC-SVG-20010904/DTD/svg10.dtd">
<svg version="1.0" xmlns="http://www.w3.org/2000/svg"
 width="64.000000pt" height="64.000000pt" viewBox="0 0 64.000000 64.000000"
 preserveAspectRatio="xMidYMid meet">

<g transform="translate(0.000000,64.000000) scale(0.100000,-0.100000)"
fill="#000000" stroke="none">
<path d="M140 620 c-11 -11 -20 -31 -20 -45 0 -16 -6 -25 -15 -25 -23 0 -23
-72 1 -129 8 -18 14 -61 14 -95 0 -35 5 -67 12 -74 9 -9 9 -15 0 -24 -7 -7
-12 -22 -12 -34 0 -20 -6 -23 -47 -26 l-48 -3 -3 -62 c-2 -52 1 -66 18 -83 19
-19 32 -20 230 -20 268 0 250 -13 250 183 0 98 -4 147 -12 155 -9 9 -9 15 0
24 15 15 16 58 2 58 -5 0 -10 -8 -10 -17 0 -9 -7 -25 -17 -35 -15 -17 -15 -19
1 -37 14 -16 16 -38 14 -156 -3 -119 -5 -139 -20 -149 -35 -21 -53 4 -56 78
l-3 66 -57 0 c-32 0 -63 -5 -70 -12 -9 -9 -15 -9 -24 0 -14 14 -78 16 -78 2 0
-5 14 -10 32 -10 17 0 39 -7 48 -15 15 -14 18 -14 30 0 8 9 29 15 56 15 l44 0
0 -49 c0 -27 3 -56 6 -65 5 -14 -13 -16 -168 -16 -122 0 -178 4 -186 12 -7 7
-12 36 -12 65 l0 53 60 0 c33 0 60 4 60 10 0 6 -4 10 -10 10 -16 0 -12 40 5
57 14 14 14 17 0 32 -9 11 -15 35 -15 62 l1 44 27 -31 c25 -28 109 -64 151
-64 10 0 28 -11 41 -25 l23 -25 -81 0 c-48 0 -82 -4 -82 -10 0 -6 47 -10 120
-10 66 0 120 3 120 7 0 4 -19 27 -42 50 l-42 43 37 0 c20 0 37 5 37 10 0 6
-18 10 -39 10 -25 0 -41 5 -45 15 -4 12 4 15 39 15 60 0 58 18 -2 22 -66 4
-70 28 -4 28 28 0 51 5 51 10 0 6 -24 10 -54 10 -35 0 -58 5 -66 15 -11 13 -4
15 54 15 37 0 66 4 66 10 0 6 -31 10 -74 10 -53 0 -77 4 -86 15 -11 13 -2 15
74 15 51 0 86 4 86 10 0 6 -39 10 -97 10 -121 0 -213 24 -213 56 0 40 16 44
195 44 l170 0 -4 -85 c-2 -57 1 -85 8 -85 6 0 11 5 11 10 0 6 20 10 45 10 51
0 67 18 46 53 -9 14 -10 22 -2 30 17 17 13 45 -9 67 -19 19 -33 20 -230 20
-197 0 -211 -1 -230 -20z m454 -22 c8 -13 6 -22 -8 -37 -18 -20 -18 -22 -3
-39 25 -27 21 -32 -23 -32 l-40 0 0 53 c0 29 6 59 12 65 17 17 48 11 62 -10z
m-410 -74 c9 -3 16 -12 16 -20 0 -17 17 -18 23 -1 3 6 6 -3 6 -22 1 -29 -1
-32 -15 -21 -12 11 -18 10 -31 -3 -13 -13 -14 -19 -3 -31 11 -14 8 -16 -19
-16 -39 0 -59 37 -32 57 15 11 15 12 0 13 -16 0 -29 19 -29 41 0 10 60 12 84
3z m86 -66 c0 -14 5 -18 15 -14 11 4 15 -2 15 -25 0 -24 4 -30 15 -25 8 3 15
4 15 3 0 -1 4 -18 10 -37 l10 -34 -50 49 c-40 40 -50 56 -50 83 0 19 4 31 10
27 6 -3 10 -15 10 -27z m144 -237 c-2 -3 -28 19 -57 47 -48 48 -86 72 -57 37
18 -21 -4 -20 -59 5 -30 14 -41 24 -37 35 4 11 -1 15 -18 15 -13 0 -26 7 -30
15 -10 27 57 19 84 -10 13 -14 28 -25 34 -25 6 0 -9 19 -32 43 -23 23 -42 47
-42 52 0 5 49 -40 110 -100 60 -60 107 -111 104 -114z"/>
<path d="M220 560 c0 -6 45 -10 115 -10 70 0 115 4 115 10 0 6 -45 10 -115 10
-70 0 -115 -4 -115 -10z"/>
<path d="M190 260 c0 -5 18 -10 40 -10 22 0 40 5 40 10 0 6 -18 10 -40 10 -22
0 -40 -4 -40 -10z"/>
</g>
</svg>
