<?xml version="1.0" standalone="no"?>
<!DOCTYPE svg PUBLIC "-//W3C//DTD SVG 20010904//EN"
 "http://www.w3.org/TR/2001/REC-SVG-20010904/DTD/svg10.dtd">
<svg version="1.0" xmlns="http://www.w3.org/2000/svg"
 width="64.000000pt" height="64.000000pt" viewBox="0 0 64.000000 64.000000"
 preserveAspectRatio="xMidYMid meet">

<g transform="translate(0.000000,64.000000) scale(0.100000,-0.100000)"
fill="#000000" stroke="none">
<path d="M217 629 c-24 -14 -45 -59 -66 -142 l-19 -72 -43 -3 c-71 -5 -86 -47
-28 -78 16 -8 29 -21 29 -29 0 -9 10 -20 23 -26 12 -5 33 -29 46 -52 26 -45
30 -102 10 -165 -18 -57 -6 -62 150 -62 141 0 161 5 161 42 0 22 13 23 30 3 7
-8 23 -15 36 -15 31 0 42 35 18 61 -13 14 -17 33 -15 63 2 34 -3 49 -25 75
-14 17 -25 33 -23 35 2 2 14 9 27 15 12 6 22 18 22 26 0 8 13 21 29 29 58 31
43 73 -28 78 l-43 3 -19 74 c-34 134 -79 177 -139 132 l-31 -22 -26 20 c-28
23 -49 26 -76 10z m68 -29 c10 -11 26 -20 35 -20 9 0 25 9 35 20 48 53 90 1
129 -162 l6 -28 -125 0 c-77 0 -125 -4 -125 -10 0 -6 65 -10 174 -10 96 0 177
-4 180 -9 10 -16 -18 -29 -98 -45 -100 -20 -252 -20 -352 0 -134 27 -138 54
-8 54 49 0 84 4 84 10 0 6 -16 10 -35 10 -34 0 -34 1 -28 33 11 55 42 140 60
159 21 24 45 23 68 -2z m-155 -296 c0 -8 -4 -12 -10 -9 -5 3 -10 10 -10 16 0
5 5 9 10 9 6 0 10 -7 10 -16z m400 7 c0 -6 -4 -13 -10 -16 -5 -3 -10 1 -10 9
0 9 5 16 10 16 6 0 10 -4 10 -9z m-42 -21 c-2 -8 -14 -16 -28 -18 -53 -6 -73
-14 -96 -39 -13 -14 -24 -33 -24 -42 0 -9 -4 -22 -9 -29 -12 -19 -81 1 -122
35 -28 24 -59 77 -59 100 0 4 77 8 170 8 146 0 170 -2 168 -15z m17 -65 c38
-37 35 -95 -6 -129 -35 -30 -58 -32 -98 -11 -34 17 -55 62 -45 99 15 63 103
88 149 41z m-277 -67 c20 -26 60 -133 50 -137 -15 -5 -59 40 -75 77 -20 49 -2
93 25 60z m65 -42 c15 -22 13 -36 -4 -36 -4 0 -12 14 -18 30 -12 36 1 39 22 6z
m37 14 c0 -5 -4 -10 -10 -10 -5 0 -10 5 -10 10 0 6 5 10 10 10 6 0 10 -4 10
-10z m27 -46 c-9 -9 -28 6 -21 18 4 6 10 6 17 -1 6 -6 8 -13 4 -17z m191 -6
c16 -16 15 -28 -2 -28 -17 0 -38 24 -29 33 9 10 17 9 31 -5z m-338 -56 c-28
-5 -33 1 -25 29 l8 23 20 -25 19 -24 -22 -3z m127 32 c8 -21 -13 -42 -28 -27
-13 13 -5 43 11 43 6 0 13 -7 17 -16z m61 8 c9 -7 8 -13 -7 -26 -26 -23 -41
-17 -30 12 9 24 17 26 37 14z m62 -27 c0 -9 -9 -15 -25 -15 -24 0 -32 10 -18
23 12 13 43 7 43 -8z"/>
<path d="M303 263 c-23 -9 -14 -20 17 -20 32 0 40 11 14 21 -9 3 -16 6 -17 5
-1 0 -8 -3 -14 -6z"/>
<path d="M414 212 c-39 -25 -33 -84 10 -103 36 -17 76 10 76 51 0 17 -4 30
-10 30 -5 0 -10 -11 -10 -24 0 -30 -23 -50 -49 -41 -43 13 -31 75 14 75 14 0
25 5 25 10 0 12 -40 13 -56 2z"/>
</g>
</svg>
