<?xml version="1.0" standalone="no"?>
<!DOCTYPE svg PUBLIC "-//W3C//DTD SVG 20010904//EN"
 "http://www.w3.org/TR/2001/REC-SVG-20010904/DTD/svg10.dtd">
<svg version="1.0" xmlns="http://www.w3.org/2000/svg"
 width="64.000000pt" height="64.000000pt" viewBox="0 0 64.000000 64.000000"
 preserveAspectRatio="xMidYMid meet">

<g transform="translate(0.000000,64.000000) scale(0.100000,-0.100000)"
fill="#000000" stroke="none">
<path d="M335 558 c-11 -28 -75 -471 -69 -479 8 -13 34 -11 39 4 11 27 75 470
69 478 -8 13 -34 11 -39 -3z"/>
<path d="M82 416 c-45 -46 -82 -89 -82 -96 0 -17 160 -180 177 -180 30 0 9 44
-53 110 l-66 70 66 70 c62 66 83 110 53 110 -8 0 -50 -38 -95 -84z"/>
<path d="M450 480 c0 -11 30 -51 66 -90 l66 -70 -66 -70 c-62 -66 -83 -110
-53 -110 17 0 177 163 177 180 0 17 -160 180 -177 180 -7 0 -13 -9 -13 -20z"/>
</g>
</svg>
