<?xml version="1.0" standalone="no"?>
<!DOCTYPE svg PUBLIC "-//W3C//DTD SVG 20010904//EN"
 "http://www.w3.org/TR/2001/REC-SVG-20010904/DTD/svg10.dtd">
<svg version="1.0" xmlns="http://www.w3.org/2000/svg"
 width="32.000000pt" height="32.000000pt" viewBox="0 0 32.000000 32.000000"
 preserveAspectRatio="xMidYMid meet">

<g transform="translate(0.000000,32.000000) scale(0.100000,-0.100000)"
fill="#000000" stroke="none">
<path d="M80 273 c-15 -19 -20 -36 -16 -55 4 -23 2 -28 -14 -28 -26 0 -50 -27
-50 -56 0 -26 73 -114 94 -114 7 0 25 14 41 30 19 20 35 28 47 24 38 -12 138
100 138 154 0 35 -38 72 -74 72 -17 0 -37 -5 -44 -12 -9 -9 -15 -9 -24 0 -22
22 -75 14 -98 -15z m100 -8 c11 -13 14 -13 27 0 31 32 93 8 93 -36 0 -31 -25
-73 -65 -108 -45 -39 -55 -39 -48 2 7 43 -23 72 -66 64 -27 -6 -30 -3 -36 24
-5 22 -2 36 11 50 20 23 67 25 84 4z m-95 -105 c5 -8 11 -7 20 0 8 6 24 10 37
8 46 -6 28 -76 -28 -113 -25 -16 -26 -15 -60 20 -31 34 -43 72 -27 88 10 11
51 8 58 -3z"/>
</g>
</svg>
