<?xml version="1.0" standalone="no"?>
<!DOCTYPE svg PUBLIC "-//W3C//DTD SVG 20010904//EN"
 "http://www.w3.org/TR/2001/REC-SVG-20010904/DTD/svg10.dtd">
<svg version="1.0" xmlns="http://www.w3.org/2000/svg"
 width="64.000000pt" height="64.000000pt" viewBox="0 0 64.000000 64.000000"
 preserveAspectRatio="xMidYMid meet">

<g transform="translate(0.000000,64.000000) scale(0.100000,-0.100000)"
fill="#000000" stroke="none">
<path d="M293 610 c-22 -9 -73 -76 -73 -95 0 -6 -24 -11 -59 -10 -71 0 -101
-21 -101 -70 0 -17 -5 -36 -11 -42 -15 -15 6 -53 31 -53 29 0 33 -17 10 -47
-67 -91 -26 -170 83 -159 33 4 47 1 47 -7 0 -23 51 -88 77 -98 18 -7 35 -5 61
7 65 28 67 30 64 66 l-2 34 59 -1 c44 0 64 5 80 19 30 27 28 83 -5 131 -26 39
-24 50 11 57 18 3 20 10 17 63 -4 82 -23 100 -102 100 -51 -1 -60 2 -64 20 -7
28 -57 82 -81 89 -11 2 -30 1 -42 -4z m76 -45 c42 -48 40 -67 -9 -83 -50 -15
-120 2 -120 30 0 24 58 88 80 88 10 0 32 -16 49 -35z m-164 -107 c-12 -59 -16
-67 -46 -93 -40 -33 -50 -32 -43 5 5 25 2 31 -20 41 -29 13 -32 27 -13 51 16
21 33 26 85 27 l44 1 -7 -32z m351 7 c20 -27 17 -40 -12 -54 -22 -10 -25 -16
-20 -41 4 -22 2 -30 -8 -30 -19 0 -76 66 -76 88 0 9 -3 28 -7 41 -6 23 -5 24
52 19 41 -3 62 -10 71 -23z m-273 -4 c4 -4 -11 -17 -33 -30 l-41 -23 7 29 c4
15 9 32 11 36 5 8 42 0 56 -12z m139 -16 c4 -16 6 -30 5 -32 -2 -1 -21 9 -42
22 l-40 24 25 10 c34 13 43 9 52 -24z m-46 -26 l54 -30 0 -69 0 -69 -55 -31
-55 -31 -55 31 -55 31 0 69 0 68 53 31 c28 17 54 31 56 31 2 0 28 -14 57 -31z
m-278 -42 c2 -10 -3 -17 -12 -17 -18 0 -29 16 -21 31 9 14 29 6 33 -14z m477
3 c0 -8 -8 -16 -17 -18 -13 -2 -18 3 -18 18 0 15 5 20 18 18 9 -2 17 -10 17
-18z m-385 -62 l0 -53 -27 27 -27 27 24 26 c13 14 25 25 27 25 2 0 3 -24 3
-52z m287 -25 l-27 -28 0 55 0 55 27 -28 28 -27 -28 -27z m-308 -28 c17 -20
31 -43 31 -53 0 -9 3 -27 6 -39 6 -21 3 -23 -34 -23 -93 0 -121 38 -81 109 12
23 28 41 35 41 6 0 26 -16 43 -35z m380 -6 c40 -71 12 -109 -81 -109 -37 0
-40 2 -34 23 3 12 6 30 6 39 0 21 57 88 74 88 7 0 23 -18 35 -41z m-269 -68
c12 -8 9 -12 -14 -21 -33 -12 -41 -7 -50 33 -7 28 -7 28 21 13 15 -8 35 -20
43 -25z m144 12 c-9 -40 -17 -45 -50 -33 l-29 11 40 25 c22 13 41 24 43 24 1
0 -1 -12 -4 -27z m-63 -45 c44 -13 50 -29 17 -43 -13 -6 -23 -19 -23 -30 -1
-55 -40 -59 -84 -10 -40 46 -40 69 2 83 43 14 44 14 88 0z m46 -64 c8 -21 -13
-42 -28 -27 -13 13 -5 43 11 43 6 0 13 -7 17 -16z"/>
<path d="M275 365 c-14 -13 -25 -33 -25 -45 0 -27 43 -70 70 -70 27 0 70 43
70 70 0 12 -11 32 -25 45 -13 14 -33 25 -45 25 -11 0 -32 -11 -45 -25z m79
-11 c31 -30 9 -84 -34 -84 -24 0 -50 26 -50 50 0 24 26 50 50 50 10 0 26 -7
34 -16z"/>
<path d="M336 314 c-4 -9 -4 -19 -2 -21 8 -8 26 8 26 23 0 19 -16 18 -24 -2z"/>
</g>
</svg>
